<svg width="15" height="21" viewBox="0 0 242 333" fill="none" xmlns="http://www.w3.org/2000/svg">
<path d="M121.053 0C54.554 0 0.453125 54.1009 0.453125 120.599C0.453125 203.126 108.378 324.281 112.973 329.398C117.289 334.205 124.825 334.196 129.133 329.398C133.728 324.281 241.653 203.126 241.653 120.599C241.652 54.1009 187.552 0 121.053 0ZM121.053 181.276C87.5958 181.276 60.3769 154.057 60.3769 120.599C60.3769 87.142 87.5965 59.9232 121.053 59.9232C154.51 59.9232 181.729 87.1427 181.729 120.6C181.729 154.058 154.51 181.276 121.053 181.276Z" fill="#FF4700"/>
</svg>
