<svg width="16" height="12" viewBox="0 0 381 286" fill="none" xmlns="http://www.w3.org/2000/svg">
<path d="M380.28 237.673C380.28 246.01 377.935 253.739 374.178 260.538L254.109 126.197L372.877 22.2857C377.497 29.6176 380.28 38.2301 380.28 47.537V237.673ZM190.14 150.59L355.402 5.98935C348.621 2.27677 340.984 0 332.746 0H47.5347C39.2866 0 31.6475 2.27677 24.8932 5.98935L190.14 150.59ZM236.214 141.842L197.961 175.334C195.723 177.283 192.937 178.256 190.14 178.256C187.342 178.256 184.556 177.283 182.319 175.334L144.056 141.84L22.4675 277.898C29.7555 282.471 38.2967 285.21 47.5339 285.21H332.746C341.982 285.21 350.527 282.471 357.812 277.898L236.214 141.842ZM7.40479 22.2849C2.78542 29.6168 0 38.2293 0 47.537V237.674C0 246.011 2.33398 253.739 6.10456 260.539L126.16 126.175L7.40479 22.2849Z" fill="#FF4700"/>
</svg>
