<svg width="26" height="26" viewBox="0 0 906 906" fill="none" xmlns="http://www.w3.org/2000/svg">
<circle cx="453" cy="453" r="453" fill="#FF4700"/>
<path d="M326.607 328.658C328.872 339.079 332.346 345.826 336.399 350.03C346.041 417.143 406.281 474.337 454.665 471.945C516.214 468.925 559.84 402.592 569.632 350.03C573.685 345.851 577.587 336.915 579.928 326.417C582.546 314.359 585.366 296.184 578.116 286.567C577.688 286.064 574.919 283.521 574.44 283.094C581.363 258.121 596.568 213.564 558.707 173.513C538.19 151.814 509.694 140.913 483.941 132.304C407.917 106.904 354.247 142.525 329.477 201.758C327.689 205.962 316.135 232.57 330.131 283.094C328.772 284 327.538 285.158 326.506 286.567C319.231 296.159 323.964 316.6 326.607 328.658Z" fill="white"/>
<path d="M719.804 697.758C717.69 651.564 715.072 578.36 674.719 518.472C674.719 518.472 663.214 502.789 635.926 492.367C635.926 492.367 576.668 474.318 549.379 454.808L536.919 463.342L538.303 544.35L463.487 744.077C461.851 748.457 457.672 751.352 453.015 751.352C448.358 751.352 444.179 748.457 442.543 744.077L367.752 544.35C367.752 544.35 369.137 463.594 369.112 463.342C369.288 464.022 356.626 454.808 356.626 454.808C329.388 474.318 270.104 492.367 270.104 492.367C242.816 502.789 231.312 518.472 231.312 518.472C190.984 578.36 188.315 651.564 186.201 697.758C184.741 729.678 191.437 741.585 199.845 744.983C304.214 786.872 601.74 786.872 706.135 744.983C714.593 741.61 721.239 729.678 719.804 697.758Z" fill="white"/>
<path d="M455.69 497.744L452.316 497.819C441.441 497.819 430.466 495.705 419.691 491.979L449.346 537.367L422.737 563.044L450.126 729.365C450.353 730.8 451.586 731.832 453.046 731.832C454.481 731.832 455.715 730.8 455.966 729.365L483.355 563.044L456.722 537.367L485.948 492.659C476.407 495.453 466.313 497.316 455.69 497.744Z" fill="white"/>
</svg>
