<svg width="17" height="17" viewBox="0 0 336 337" fill="none" xmlns="http://www.w3.org/2000/svg">
<path d="M255.688 222.612C244.743 211.807 231.079 211.807 220.204 222.612C211.908 230.839 203.612 239.065 195.456 247.43C193.225 249.731 191.343 250.219 188.624 248.685C183.256 245.757 177.539 243.387 172.38 240.18C148.329 225.052 128.182 205.602 110.335 183.712C101.481 172.837 93.6038 161.194 88.0964 148.088C86.981 145.439 87.1902 143.696 89.3513 141.535C97.6472 133.518 105.734 125.292 113.891 117.066C125.254 105.633 125.254 92.2475 113.821 80.7447C107.337 74.1916 100.854 67.7779 94.3707 61.2248C87.6782 54.5323 81.0553 47.77 74.2931 41.1472C63.348 30.481 49.6841 30.481 38.8088 41.2169C30.4431 49.4432 22.426 57.8785 13.9209 65.9653C6.04328 73.4247 2.06959 82.5572 1.23302 93.2234C-0.0915411 110.582 4.161 126.965 10.1564 142.929C22.426 175.974 41.1093 205.323 63.7663 232.233C94.3707 268.623 130.901 297.415 173.635 318.19C192.876 327.532 212.814 334.712 234.495 335.897C249.414 336.734 262.381 332.969 272.768 321.327C279.879 313.38 287.896 306.129 295.425 298.531C306.58 287.237 306.649 273.573 295.565 262.419C282.319 249.104 269.004 235.858 255.688 222.612Z" fill="#FF4700"/>
<path d="M242.373 167.05L268.097 162.658C264.054 139.025 252.899 117.623 235.959 100.613C218.042 82.6963 195.385 71.4027 170.428 67.917L166.803 93.7808C186.113 96.4997 203.681 105.214 217.554 119.087C230.661 132.193 239.235 148.785 242.373 167.05Z" fill="#FF4700"/>
<path d="M282.599 55.2291C252.901 25.531 215.326 6.77795 173.846 0.991699L170.221 26.8555C206.054 31.8749 238.54 48.1182 264.195 73.7032C288.525 98.0333 304.49 128.777 310.276 162.588L336 158.196C329.238 119.017 310.764 83.4631 282.599 55.2291Z" fill="#FF4700"/>
</svg>
