<svg width="16" height="16" viewBox="0 0 400 400" fill="none" xmlns="http://www.w3.org/2000/svg">
<path d="M200 400C310.457 400 400 310.457 400 200C400 89.543 310.457 0 200 0C89.543 0 0 89.543 0 200C0 310.457 89.543 400 200 400Z" fill="#59AAE7"/>
<path d="M128.664 243.079L64.1624 210.828C62.3944 209.944 62.3772 207.427 64.1327 206.519L309.18 79.7695C310.98 78.8383 313.058 80.4031 312.662 82.3906L270.471 293.341C270.17 294.847 268.56 295.694 267.148 295.089L209.81 270.516C209.123 270.222 208.338 270.262 207.684 270.625L133.591 311.788C131.98 312.682 130 311.518 130 309.674V245.241C130.001 244.325 129.483 243.488 128.664 243.079Z" fill="#FCFCFC"/>
<path d="M156.493 264.818L156.092 200.421C156.089 200.009 156.303 199.626 156.654 199.411L261.263 135.506C262.449 134.782 263.689 136.352 262.71 137.338L183.1 217.513C183.013 217.602 182.939 217.704 182.883 217.816L169.266 245.048L158.712 265.351C158.146 266.441 156.5 266.045 156.493 264.818Z" fill="#D8D7DA"/>
</svg>
