<svg width="26" height="26" viewBox="0 0 906 906" fill="none" xmlns="http://www.w3.org/2000/svg">
<circle cx="453" cy="453" r="453" fill="#FF4700"/>
<path d="M398.8 471.067H507.2V507.2H398.8V471.067Z" fill="white"/>
<path d="M644.963 507.2H543.333V525.267C543.333 535.25 535.25 543.333 525.267 543.333H380.733C370.749 543.333 362.667 535.25 362.667 525.267V507.2H261.037C237.677 507.2 217.018 492.309 209.622 470.149L144.662 275.236V669.8C144.662 699.685 168.977 724 198.862 724H707.138C737.023 724 761.338 699.685 761.338 669.8V275.25L696.373 470.149C688.982 492.309 668.323 507.2 644.963 507.2V507.2Z" fill="white"/>
<path d="M525.267 182H380.733C350.848 182 326.533 206.315 326.533 236.2V254.267H175.747L243.888 458.716C246.358 466.108 253.255 471.067 261.037 471.067H362.667V453C362.667 443.016 370.749 434.933 380.733 434.933H525.267C535.25 434.933 543.333 443.016 543.333 453V471.067H644.963C652.745 471.067 659.642 466.108 662.112 458.716L730.257 254.267H579.467V236.2C579.467 206.315 555.152 182 525.267 182V182ZM362.667 254.267V236.2C362.667 226.23 370.764 218.133 380.733 218.133H525.267C535.236 218.133 543.333 226.23 543.333 236.2V254.267H362.667Z" fill="white"/>
</svg>
